<?xml version="1.0" encoding="iso-8859-1"?>
<!-- Generator: Adobe Illustrator 19.0.0, SVG Export Plug-In . SVG Version: 6.00 Build 0)  -->
<svg version="1.1" id="Capa_1" xmlns="http://www.w3.org/2000/svg" xmlns:xlink="http://www.w3.org/1999/xlink" x="0px" y="0px"
	 viewBox="0 0 512 512" style="enable-background:new 0 0 512 512;" xml:space="preserve">
<g>
	<g>
		<path d="M486.366,0H25.634C11.503,0,0,11.503,0,25.634v460.732C0,500.497,11.503,512,25.634,512h460.732
			C500.497,512,512,500.497,512,486.366V25.634C512,11.503,500.497,0,486.366,0z M494.933,486.366c0,4.727-3.84,8.567-8.567,8.567
			H25.634c-4.727,0-8.568-3.84-8.568-8.567V25.634c0-4.727,3.84-8.568,8.568-8.568h460.732c4.727,0,8.567,3.84,8.567,8.568V486.366z
			"/>
	</g>
</g>
<g>
	<g>
		<path d="M179.2,0H25.634C11.503,0,0,11.503,0,25.634V179.2c0,4.71,3.823,8.533,8.533,8.533H179.2c4.71,0,8.533-3.823,8.533-8.533
			V8.533C187.733,3.823,183.91,0,179.2,0z M170.667,170.667h-153.6V25.634c0-4.727,3.84-8.568,8.568-8.568h145.033V170.667z"/>
	</g>
</g>
<g>
	<g>
		<path d="M486.366,0H332.8c-4.71,0-8.533,3.823-8.533,8.533V179.2c0,4.71,3.823,8.533,8.533,8.533h170.667
			c4.71,0,8.533-3.823,8.533-8.533V25.634C512,11.503,500.497,0,486.366,0z M494.933,170.667h-153.6v-153.6h145.033
			c4.727,0,8.567,3.84,8.567,8.568V170.667z"/>
	</g>
</g>
<g>
	<g>
		<path d="M332.8,0H179.2c-4.71,0-8.533,3.823-8.533,8.533V179.2c0,4.71,3.823,8.533,8.533,8.533h153.6
			c4.71,0,8.533-3.823,8.533-8.533V8.533C341.333,3.823,337.51,0,332.8,0z M324.267,170.667H187.733v-153.6h136.533V170.667z"/>
	</g>
</g>
<g>
	<g>
		<path d="M179.2,324.267H8.533C3.823,324.267,0,328.09,0,332.8v153.566C0,500.497,11.503,512,25.634,512H179.2
			c4.71,0,8.533-3.823,8.533-8.533V332.8C187.733,328.09,183.91,324.267,179.2,324.267z M170.667,494.933H25.634
			c-4.727,0-8.568-3.84-8.568-8.567V341.333h153.6V494.933z"/>
	</g>
</g>
<g>
	<g>
		<path d="M503.467,324.267H332.8c-4.71,0-8.533,3.823-8.533,8.533v170.667c0,4.71,3.823,8.533,8.533,8.533h153.566
			C500.497,512,512,500.497,512,486.366V332.8C512,328.09,508.177,324.267,503.467,324.267z M494.933,486.366
			c0,4.727-3.84,8.567-8.567,8.567H341.333v-153.6h153.6V486.366z"/>
	</g>
</g>
<g>
	<g>
		<path d="M332.8,324.267H179.2c-4.71,0-8.533,3.823-8.533,8.533v170.667c0,4.71,3.823,8.533,8.533,8.533h153.6
			c4.71,0,8.533-3.823,8.533-8.533V332.8C341.333,328.09,337.51,324.267,332.8,324.267z M324.267,494.933H187.733v-153.6h136.533
			V494.933z"/>
	</g>
</g>
<g>
	<g>
		<path d="M304.7,369.434c-3.328-3.336-8.738-3.336-12.066,0L207.3,454.767c-3.337,3.337-3.337,8.73,0,12.066
			c1.664,1.664,3.849,2.5,6.033,2.5c2.185,0,4.369-0.836,6.033-2.5L304.7,381.5C308.036,378.163,308.036,372.77,304.7,369.434z"/>
	</g>
</g>
<g>
	<g>
		<path d="M304.7,454.767l-85.333-85.333c-3.328-3.336-8.738-3.336-12.066,0c-3.337,3.337-3.337,8.73,0,12.066l85.333,85.333
			c1.664,1.664,3.849,2.5,6.033,2.5c2.185,0,4.369-0.836,6.033-2.5C308.036,463.497,308.036,458.103,304.7,454.767z"/>
	</g>
</g>
<g>
	<g>
		<path d="M179.2,170.667H8.533C3.823,170.667,0,174.49,0,179.2v153.6c0,4.71,3.823,8.533,8.533,8.533H179.2
			c4.71,0,8.533-3.823,8.533-8.533V179.2C187.733,174.49,183.91,170.667,179.2,170.667z M170.667,324.267h-153.6V187.733h153.6
			V324.267z"/>
	</g>
</g>
<g>
	<g>
		<path d="M503.467,170.667H332.8c-4.71,0-8.533,3.823-8.533,8.533v153.6c0,4.71,3.823,8.533,8.533,8.533h170.667
			c4.71,0,8.533-3.823,8.533-8.533V179.2C512,174.49,508.177,170.667,503.467,170.667z M494.933,324.267h-153.6V187.733h153.6
			V324.267z"/>
	</g>
</g>
<g>
	<g>
		<path d="M256,204.8c-28.228,0-51.2,22.963-51.2,51.2c0,28.237,22.972,51.2,51.2,51.2s51.2-22.963,51.2-51.2
			S284.228,204.8,256,204.8z M256,290.133c-18.825,0-34.133-15.309-34.133-34.133c0-18.825,15.309-34.133,34.133-34.133
			c18.825,0,34.133,15.309,34.133,34.133C290.133,274.825,274.825,290.133,256,290.133z"/>
	</g>
</g>
<g>
	<g>
		<path d="M256,42.667c-28.228,0-51.2,22.963-51.2,51.2c0,28.237,22.972,51.2,51.2,51.2s51.2-22.963,51.2-51.2
			C307.2,65.63,284.228,42.667,256,42.667z M256,128c-18.825,0-34.133-15.309-34.133-34.133c0-18.825,15.309-34.133,34.133-34.133
			c18.825,0,34.133,15.309,34.133,34.133C290.133,112.691,274.825,128,256,128z"/>
	</g>
</g>
<g>
	<g>
		<path d="M418.133,204.8c-28.228,0-51.2,22.963-51.2,51.2c0,28.237,22.972,51.2,51.2,51.2s51.2-22.963,51.2-51.2
			S446.362,204.8,418.133,204.8z M418.133,290.133C399.309,290.133,384,274.825,384,256c0-18.825,15.309-34.133,34.133-34.133
			s34.133,15.309,34.133,34.133C452.267,274.825,436.958,290.133,418.133,290.133z"/>
	</g>
</g>
<g>
	<g>
		<path d="M93.867,366.933c-28.228,0-51.2,22.963-51.2,51.2c0,28.237,22.972,51.2,51.2,51.2c28.228,0,51.2-22.963,51.2-51.2
			C145.067,389.897,122.095,366.933,93.867,366.933z M93.867,452.267c-18.825,0-34.133-15.309-34.133-34.133S75.042,384,93.867,384
			C112.691,384,128,399.309,128,418.133S112.691,452.267,93.867,452.267z"/>
	</g>
</g>
<g>
	<g>
		<path d="M466.833,369.434c-3.328-3.336-8.738-3.336-12.066,0l-85.333,85.333c-3.336,3.337-3.336,8.73,0,12.066
			c1.664,1.664,3.849,2.5,6.033,2.5c2.185,0,4.369-0.836,6.033-2.5l85.333-85.333C470.17,378.163,470.17,372.77,466.833,369.434z"/>
	</g>
</g>
<g>
	<g>
		<path d="M466.833,454.767L381.5,369.434c-3.328-3.336-8.738-3.336-12.066,0c-3.336,3.337-3.336,8.73,0,12.066l85.333,85.333
			c1.664,1.664,3.849,2.5,6.033,2.5c2.185,0,4.369-0.836,6.033-2.5C470.17,463.497,470.17,458.103,466.833,454.767z"/>
	</g>
</g>
<g>
	<g>
		<path d="M142.566,45.167c-3.328-3.336-8.738-3.336-12.066,0L45.167,130.5c-3.337,3.336-3.337,8.73,0,12.066
			c1.664,1.664,3.849,2.5,6.033,2.5c2.185,0,4.369-0.836,6.033-2.5l85.333-85.333C145.903,53.897,145.903,48.503,142.566,45.167z"/>
	</g>
</g>
<g>
	<g>
		<path d="M142.566,130.5L57.233,45.167c-3.328-3.337-8.738-3.337-12.066,0c-3.337,3.337-3.337,8.73,0,12.066l85.333,85.333
			c1.664,1.664,3.849,2.5,6.033,2.5c2.185,0,4.369-0.836,6.033-2.5C145.903,139.23,145.903,133.837,142.566,130.5z"/>
	</g>
</g>
<g>
	<g>
		<path d="M466.833,45.167c-3.328-3.336-8.738-3.336-12.066,0L369.434,130.5c-3.336,3.336-3.336,8.73,0,12.066
			c1.664,1.664,3.849,2.5,6.033,2.5c2.185,0,4.369-0.836,6.033-2.5l85.333-85.333C470.17,53.897,470.17,48.503,466.833,45.167z"/>
	</g>
</g>
<g>
	<g>
		<path d="M466.833,130.5L381.5,45.167c-3.328-3.337-8.738-3.337-12.066,0c-3.336,3.337-3.336,8.73,0,12.066l85.333,85.333
			c1.664,1.664,3.849,2.5,6.033,2.5c2.185,0,4.369-0.836,6.033-2.5C470.17,139.23,470.17,133.837,466.833,130.5z"/>
	</g>
</g>
<g>
	<g>
		<path d="M142.566,207.3c-3.328-3.337-8.738-3.337-12.066,0l-85.333,85.333c-3.337,3.337-3.337,8.73,0,12.066
			c1.664,1.664,3.849,2.5,6.033,2.5c2.185,0,4.369-0.836,6.033-2.5l85.333-85.333C145.903,216.03,145.903,210.637,142.566,207.3z"/>
	</g>
</g>
<g>
	<g>
		<path d="M142.566,292.634L57.233,207.3c-3.328-3.337-8.738-3.337-12.066,0c-3.337,3.337-3.337,8.73,0,12.066L130.5,304.7
			c1.664,1.664,3.849,2.5,6.033,2.5c2.185,0,4.369-0.836,6.033-2.5C145.903,301.363,145.903,295.97,142.566,292.634z"/>
	</g>
</g>
<g>
</g>
<g>
</g>
<g>
</g>
<g>
</g>
<g>
</g>
<g>
</g>
<g>
</g>
<g>
</g>
<g>
</g>
<g>
</g>
<g>
</g>
<g>
</g>
<g>
</g>
<g>
</g>
<g>
</g>
</svg>
